<svg width="135" height="27" viewBox="0 0 135 27" fill="none" xmlns="http://www.w3.org/2000/svg">
<path d="M113.416 27V0H117.391L130.684 20.0625V0H134.659V27H130.684L117.391 6.91875V27H113.416Z" fill="white"/>
<path d="M91.6626 27V0H108.913V3.69375H95.5814V11.2687H106.663V14.9625H95.5814V23.3062H108.913V27H91.6626Z" fill="white"/>
<path d="M82.1133 27V0H86.032V27H82.1133Z" fill="white"/>
<path d="M49.8413 27V0H53.3851L63.1726 20.3062L72.9038 0H76.4851V26.9812H72.7726V8.5125L64.0538 27H62.2726L53.5351 8.5125V27H49.8413Z" fill="white"/>
<path d="M23.2837 27L32.0587 0H37.7024L46.4774 27H42.4087L34.3274 2.3625H35.3399L27.3524 27H23.2837ZM27.8399 20.9062V17.2312H41.9399V20.9062H27.8399Z" fill="white"/>
<path d="M0 27V0H8.45625C8.70625 0 9.16875 0.00625029 9.84375 0.0187509C10.5312 0.03125 11.1875 0.0812493 11.8125 0.168749C13.925 0.431249 15.7 1.1875 17.1375 2.4375C18.5875 3.6875 19.6812 5.275 20.4188 7.2C21.1562 9.1125 21.525 11.2125 21.525 13.5C21.525 15.8 21.1562 17.9125 20.4188 19.8375C19.6812 21.75 18.5875 23.3312 17.1375 24.5812C15.7 25.8187 13.925 26.5687 11.8125 26.8312C11.1875 26.9187 10.5312 26.9688 9.84375 26.9812C9.16875 26.9937 8.70625 27 8.45625 27H0ZM4.0125 23.2687H8.45625C8.88125 23.2687 9.3875 23.2563 9.975 23.2313C10.5625 23.2063 11.0813 23.1562 11.5313 23.0812C12.9063 22.8187 14.0188 22.225 14.8687 21.3C15.7313 20.3625 16.3625 19.2125 16.7625 17.85C17.1625 16.4875 17.3625 15.0375 17.3625 13.5C17.3625 11.9125 17.1562 10.4437 16.7437 9.09375C16.3312 7.73125 15.6937 6.59375 14.8313 5.68125C13.9813 4.75625 12.8813 4.16875 11.5313 3.91875C11.0813 3.83125 10.5562 3.78125 9.95625 3.76875C9.36875 3.74375 8.86875 3.73125 8.45625 3.73125H4.0125V23.2687Z" fill="white"/>
</svg>
